<svg xmlns="http://www.w3.org/2000/svg" width="192" height="192" viewBox="0 0 192 192" version="1.1">
	<path d="M 0 96 L 0 192 26.250 191.921 C 50.513 191.847, 52.046 191.741, 46.500 190.515 C 24.852 185.729, 7.476 168.843, 2.506 147.760 C 0.321 138.493, 0.347 52.397, 2.537 43.103 C 4.712 33.879, 10.433 23.708, 17.440 16.609 C 24.342 9.616, 30.599 5.656, 39.980 2.344 L 46.500 0.042 23.250 0.021 L 0 0 0 96 M 154 2.276 C 170.397 7.887, 182.334 18.977, 189.138 34.920 L 191.946 41.500 191.973 20.750 L 192 0 169.750 0.026 L 147.500 0.052 154 2.276 M 66.054 22.115 C 65.986 25.408, 62.452 30, 59.986 30 C 58.959 30, 57.840 30.450, 57.500 31 C 57.151 31.564, 57.965 32, 59.368 32 C 62.378 32, 65.957 36.188, 66.105 39.885 C 66.198 42.212, 66.336 42.103, 67.355 38.891 C 68.889 34.055, 70.759 32, 73.622 32 C 77.033 32, 76.553 30.577, 72.765 29.457 C 70.187 28.695, 69.182 27.585, 67.819 24 C 66.421 20.321, 66.099 19.977, 66.054 22.115 M 78.684 41.359 C 77.224 43.587, 77.236 43.904, 78.834 45.350 C 80.420 46.785, 80.676 46.749, 81.816 44.924 C 82.826 43.307, 82.797 42.548, 81.666 40.933 C 80.289 38.968, 80.247 38.974, 78.684 41.359 M 39 48.311 C 29.660 50.997, 23.160 56.779, 18.011 66.979 C 7.472 87.855, 11.420 110.652, 26.728 117.319 C 28.803 118.223, 48.040 122.161, 69.477 126.071 C 102.613 132.115, 108.989 133.020, 112.022 132.111 C 115.900 130.950, 124.001 124.564, 123.998 122.672 C 123.997 122.027, 121.634 120.543, 118.748 119.374 C 101.526 112.395, 66.084 97.665, 63.791 96.532 C 61.179 95.242, 60.948 95.362, 57.370 99.847 C 48.711 110.699, 39.430 114.756, 30.989 111.379 C 11.922 103.750, 17.664 66.140, 39.530 55.442 C 44.117 53.197, 45.747 52.882, 49.744 53.465 C 53.782 54.054, 55.267 54.964, 59.582 59.493 C 62.827 62.899, 70.598 68.526, 81.082 75.060 C 90.112 80.688, 104.183 89.532, 112.351 94.712 C 120.520 99.892, 127.448 103.885, 127.748 103.586 C 128.048 103.286, 127.889 101.133, 127.396 98.802 C 126.527 94.693, 125.799 94.051, 103.500 77.736 C 73.195 55.563, 69.843 53.275, 63.223 50.245 C 56.559 47.194, 45.855 46.339, 39 48.311 M 41.271 60.095 C 30.447 65.453, 23.391 80.785, 25.445 94.482 C 26.232 99.728, 31.850 107, 35.116 107 C 37.475 107, 37.472 106.960, 34.750 101.781 C 32.959 98.374, 32.500 95.862, 32.500 89.479 C 32.500 82.418, 32.897 80.652, 35.815 74.725 C 37.922 70.443, 40.714 66.667, 43.480 64.355 C 46.003 62.245, 47.610 60.148, 47.308 59.360 C 46.625 57.580, 46.261 57.625, 41.271 60.095 M 133.040 104.219 C 133.464 106.539, 134.212 108.571, 134.702 108.734 C 135.192 108.897, 137.822 110.495, 140.546 112.284 C 149.419 118.112, 156.010 122, 157.015 122 C 158.645 122, 158.124 118.422, 156.250 116.736 C 153.172 113.968, 133.773 100, 133.007 100 C 132.601 100, 132.616 101.898, 133.040 104.219 M 162 123.943 C 162 126.243, 180.818 139.582, 182.164 138.236 C 183.381 137.019, 181.514 135.090, 172.412 128.159 C 163.778 121.585, 162 120.865, 162 123.943 M 122.245 130.015 L 115.990 135.959 118.745 136.567 C 125.242 138.001, 126.568 138.747, 128 141.780 C 128.825 143.527, 130.261 144.966, 131.191 144.978 C 132.121 144.990, 133.146 145.428, 133.470 145.951 C 133.793 146.474, 129.095 156.820, 123.029 168.942 C 116.963 181.065, 112 191.212, 112 191.491 C 112 191.771, 113.013 191.969, 114.250 191.932 C 116.161 191.874, 117.961 188.895, 126.186 172.182 L 135.871 152.500 135.936 172.250 L 136 192 164 192 L 192 192 191.976 170.750 L 191.953 149.500 189.601 155.219 C 186.161 163.583, 181.533 170.313, 175.308 176.002 C 169.983 180.868, 161.313 186.646, 160.522 185.855 C 159.942 185.276, 143.306 148.540, 142.563 146.199 C 142.036 144.538, 142.754 143.764, 146.599 141.843 C 151.559 139.366, 154.919 135.502, 153.399 134.023 C 152.904 133.543, 148.900 131.744, 144.500 130.027 C 140.100 128.309, 135.082 126.251, 133.349 125.452 C 131.616 124.653, 129.816 124.016, 129.349 124.035 C 128.882 124.054, 125.685 126.745, 122.245 130.015 M 155.701 139.918 C 151.256 144.500, 150.557 144.061, 166.250 146.544 C 174.869 147.908, 177.297 147.999, 178.500 147 C 179.325 146.315, 180 145.407, 180 144.981 C 180 144.555, 175.613 142.473, 170.250 140.353 C 164.887 138.234, 160.275 136.388, 160 136.251 C 159.725 136.114, 157.790 137.764, 155.701 139.918 M 140 171.800 L 140 191 143.057 191 C 147.807 191, 155.112 188.872, 155.710 187.314 C 156.216 185.994, 142.903 155.606, 140.918 153.550 C 140.360 152.972, 140 160.126, 140 171.800" stroke="none" fill="black" fill-rule="evenodd"/>
</svg>